<?xml version="1.0" encoding="UTF-8" standalone="no" ?>

<svg version="1.1"
   xmlns="http://www.w3.org/2000/svg"
   xmlns:xlink="http://www.w3.org/1999/xlink"
   width="500" height="500"
   >

  <defs>
     <linearGradient id="riggel">
      <stop offset="10%" style="stop-color:#69EEF9" />
      <stop offset="75%" style="stop-color:#69B0F9" />
    </linearGradient>
    <radialGradient id="rg">
      <stop offset="10%" style="stop-color:#69EEF9" />
      <stop offset="75%" style="stop-color:#69B0F9" />
    </radialGradient>
    <g id="kast" >
      <rect x="0" y="0" width="500" height="500"
          style="fill:white;" />
      <rect x="30" y="157" width="440" height="170.5"
          style="fill:#69B0F9; stroke:black" />
      <rect x="118" y="157" width="18" height="170.5"
        style="fill:url(#riggel); stroke:black" />
      <rect x="365" y="157" width="18" height="170.5"
        style="fill:url(#riggel); stroke:black" />
      <rect x="136" y="250" width="230" height="5"
        style="fill:#69EEF9; stroke:black" />
    </g>
    <g id="poot" >
      <rect x="0" y="3" width="56" height="10.5" style="fill:black" />
      <rect x="16" y="0" width="24" height="3" style="fill:#69B0F9" />
    </g>
    <g id="knop" >
      <circle cx="40" cy="40" r="30"
        style="stroke:black; fill:#69EEF9;" />
      <circle cx="40" cy="40" r="25"
        style="stroke:black; fill:url(#rg);" />
    </g>
    <g id="display">
      <circle cx="40" cy="40" r="30"
        style="stroke:black; fill:#69EEF9;" />
      <circle cx="40" cy="40" r="25"
        style="stroke:black; fill:black;" />
    </g>
    <g id="aanuit">
      <circle cx="20" cy="20" r="15"
        style="stroke:black; fill:#69EEF9;" />
      <circle cx="20" cy="20" r="10"
        style="stroke:black; fill:url(#rg);" />
    </g>


    <g id="all" >
      <use xlink:href="#kast" />
      <use xlink:href="#poot"    transform="translate(54,327.5)" />
      <use xlink:href="#poot"    transform="translate(392,327.5)" />
      <use xlink:href="#knop"    transform="translate(85,170)" />
      <use xlink:href="#knop"    transform="translate(335,170)" />
      <use xlink:href="#display" transform="translate(210,170)" />
      <use xlink:href="#aanuit"  transform="translate(80,280)" />
    </g>
  </defs>

  <use xlink:href="#all" />

</svg>
